<svg width="20" height="21" viewBox="0 0 20 21" fill="none" xmlns="http://www.w3.org/2000/svg">
<path d="M0 4.0332H20V17.5042C20 18.2999 19.6839 19.0629 19.1213 19.6255C18.5587 20.1881 17.7956 20.5042 17 20.5042H3C2.20435 20.5042 1.44129 20.1881 0.87868 19.6255C0.31607 19.0629 0 18.2999 0 17.5042L0 4.0332Z" fill="white"/>
<path d="M0.5 4.5332H19.5V17.5042C19.5 18.1672 19.2366 18.8031 18.7678 19.272C18.2989 19.7408 17.663 20.0042 17 20.0042H3C2.6717 20.0042 2.34661 19.9395 2.04329 19.8139C1.73998 19.6883 1.46438 19.5041 1.23223 19.272C0.763392 18.8031 0.5 18.1672 0.5 17.5042V4.5332Z" stroke="#909090"/>
<path d="M4.88203 8.06219H3.35303C3.07688 8.06219 2.85303 8.28605 2.85303 8.56219V10.0912C2.85303 10.3673 3.07688 10.5912 3.35303 10.5912H4.88203C5.15817 10.5912 5.38203 10.3673 5.38203 10.0912V8.56219C5.38203 8.28605 5.15817 8.06219 4.88203 8.06219Z" stroke="#909090" stroke-dasharray="1 1"/>
<path d="M10.764 7.56219H9.23499C8.6827 7.56219 8.23499 8.00991 8.23499 8.56219V10.0912C8.23499 10.6435 8.6827 11.0912 9.23499 11.0912H10.764C11.3163 11.0912 11.764 10.6435 11.764 10.0912V8.56219C11.764 8.00991 11.3163 7.56219 10.764 7.56219Z" fill="white"/>
<path d="M10.764 8.06219H9.23499C8.95884 8.06219 8.73499 8.28605 8.73499 8.56219V10.0912C8.73499 10.3673 8.95884 10.5912 9.23499 10.5912H10.764C11.0401 10.5912 11.264 10.3673 11.264 10.0912V8.56219C11.264 8.28605 11.0401 8.06219 10.764 8.06219Z" stroke="#909090"/>
<path d="M16.647 7.56219H15.118C14.5657 7.56219 14.118 8.00991 14.118 8.56219V10.0912C14.118 10.6435 14.5657 11.0912 15.118 11.0912H16.647C17.1993 11.0912 17.647 10.6435 17.647 10.0912V8.56219C17.647 8.00991 17.1993 7.56219 16.647 7.56219Z" fill="white"/>
<path d="M16.647 8.06219H15.118C14.8418 8.06219 14.618 8.28605 14.618 8.56219V10.0912C14.618 10.3673 14.8418 10.5912 15.118 10.5912H16.647C16.9231 10.5912 17.147 10.3673 17.147 10.0912V8.56219C17.147 8.28605 16.9231 8.06219 16.647 8.06219Z" stroke="#909090"/>
<path d="M10.764 13.4452H9.23499C8.6827 13.4452 8.23499 13.8929 8.23499 14.4452V15.9742C8.23499 16.5265 8.6827 16.9742 9.23499 16.9742H10.764C11.3163 16.9742 11.764 16.5265 11.764 15.9742V14.4452C11.764 13.8929 11.3163 13.4452 10.764 13.4452Z" fill="white"/>
<path d="M10.764 13.9452H9.23499C8.95884 13.9452 8.73499 14.169 8.73499 14.4452V15.9742C8.73499 16.2503 8.95884 16.4742 9.23499 16.4742H10.764C11.0401 16.4742 11.264 16.2503 11.264 15.9742V14.4452C11.264 14.169 11.0401 13.9452 10.764 13.9452Z" stroke="#909090"/>
<path d="M4.88203 13.9452H3.35303C3.07688 13.9452 2.85303 14.169 2.85303 14.4452V15.9742C2.85303 16.2503 3.07688 16.4742 3.35303 16.4742H4.88203C5.15817 16.4742 5.38203 16.2503 5.38203 15.9742V14.4452C5.38203 14.169 5.15817 13.9452 4.88203 13.9452Z" stroke="#909090" stroke-dasharray="1 1"/>
<path d="M19.4998 4.93618H0.5V3.41388C0.5 2.03554 1.62136 0.914185 2.9997 0.914185H3.4996V1.92798C3.4996 3.03045 4.39693 3.92738 5.4999 3.92738C6.60287 3.92738 7.5002 3.03045 7.5002 1.92798V0.914185H12.4996V1.92798C12.4996 3.03045 13.3969 3.92738 14.4999 3.92738C15.6024 3.92738 16.4993 3.03045 16.4993 1.92798V0.914185H16.9992C18.378 0.914185 19.4998 2.03554 19.4998 3.41388V4.93618Z" fill="#BABABB"/>
<path d="M18.9998 4.43618V3.41388C18.9998 2.31124 18.1023 1.41418 16.9993 1.41418V1.92798C16.9993 3.30615 15.8781 4.42738 14.4999 4.42738C13.1212 4.42738 11.9996 3.30615 11.9996 1.92798V1.41418H8.0002V1.92798C8.0002 3.30615 6.87857 4.42738 5.4999 4.42738C4.12123 4.42738 2.9996 3.30615 2.9996 1.92798L2.9997 1.41418C1.89706 1.41418 1 2.31124 1 3.41388V4.43618H18.9998ZM19.9998 5.43618H0V3.41388C0 1.75984 1.34566 0.414185 2.9997 0.414185H3.9996V1.92798C3.9996 2.75475 4.67263 3.42738 5.4999 3.42738C6.32717 3.42738 7.0002 2.75475 7.0002 1.92798V0.414185H12.9996V1.92798C12.9996 2.75475 13.6726 3.42738 14.4999 3.42738C15.3267 3.42738 15.9993 2.75475 15.9993 1.92798V0.414185H16.9992C18.6537 0.414185 19.9998 1.75984 19.9998 3.41388V5.43618Z" fill="#909090"/>
</svg>
